<svg xmlns="http://www.w3.org/2000/svg" width="920" height="420" viewBox="0 0 920 420">
<rect width="100%" height="100%" fill="#101418"/>
<text x="80" y="30" fill="#f4f7fb" font-family="Arial" font-size="20">vulkan_gpu_measurements Semantic Utility per CPU Millisecond</text>
<line x1="80" y1="340" x2="896" y2="340" stroke="#6b7280"/>
<line x1="80" y1="48" x2="80" y2="340" stroke="#6b7280"/>
<rect x="86.0" y="153.3" width="68.8" height="186.7" fill="#4cc9f0"/>
<text transform="translate(120.4,366) rotate(-35)" fill="#d1d5db" font-family="Arial" font-size="11" text-anchor="end">moltenvk_distance-lod_outer-orbit_l100_f16.67_m256_u25_r640x360_cold_n0</text>
<text x="86.0" y="147.3" fill="#e5e7eb" font-family="Arial" font-size="11">14.8</text>
<rect x="166.8" y="143.2" width="68.8" height="196.8" fill="#4cc9f0"/>
<text transform="translate(201.2,366) rotate(-35)" fill="#d1d5db" font-family="Arial" font-size="11" text-anchor="end">moltenvk_distance-lod_rapid-teleport_l100_f16.67_m256_u25_r640x360_cold_n0</text>
<text x="166.8" y="137.2" fill="#e5e7eb" font-family="Arial" font-size="11">15.6</text>
<rect x="247.6" y="59.9" width="68.8" height="280.1" fill="#4cc9f0"/>
<text transform="translate(282.0,366) rotate(-35)" fill="#d1d5db" font-family="Arial" font-size="11" text-anchor="end">moltenvk_fixed-lod1_outer-orbit_l100_f16.67_m256_u25_r640x360_cold_n0</text>
<text x="247.6" y="53.9" fill="#e5e7eb" font-family="Arial" font-size="11">22.2</text>
<rect x="328.4" y="48.0" width="68.8" height="292.0" fill="#4cc9f0"/>
<text transform="translate(362.8,366) rotate(-35)" fill="#d1d5db" font-family="Arial" font-size="11" text-anchor="end">moltenvk_fixed-lod1_rapid-teleport_l100_f16.67_m256_u25_r640x360_cold_n0</text>
<text x="328.4" y="44.0" fill="#e5e7eb" font-family="Arial" font-size="11">23.2</text>
<rect x="409.2" y="146.8" width="68.8" height="193.2" fill="#4cc9f0"/>
<text transform="translate(443.6,366) rotate(-35)" fill="#d1d5db" font-family="Arial" font-size="11" text-anchor="end">moltenvk_geo-beacon-bounded_outer-orbit_l100_f16.67_m256_u25_r640x360_cold_n0</text>
<text x="409.2" y="140.8" fill="#e5e7eb" font-family="Arial" font-size="11">15.3</text>
<rect x="490.0" y="119.7" width="68.8" height="220.3" fill="#4cc9f0"/>
<text transform="translate(524.4,366) rotate(-35)" fill="#d1d5db" font-family="Arial" font-size="11" text-anchor="end">moltenvk_geo-beacon-bounded_rapid-teleport_l100_f16.67_m256_u25_r640x360_cold_n0</text>
<text x="490.0" y="113.7" fill="#e5e7eb" font-family="Arial" font-size="11">17.5</text>
<rect x="570.8" y="149.4" width="68.8" height="190.6" fill="#4cc9f0"/>
<text transform="translate(605.2,366) rotate(-35)" fill="#d1d5db" font-family="Arial" font-size="11" text-anchor="end">moltenvk_geo-beacon-exact_outer-orbit_l100_f16.67_m256_u25_r640x360_cold_n0</text>
<text x="570.8" y="143.4" fill="#e5e7eb" font-family="Arial" font-size="11">15.1</text>
<rect x="651.6" y="124.7" width="68.8" height="215.3" fill="#4cc9f0"/>
<text transform="translate(686.0,366) rotate(-35)" fill="#d1d5db" font-family="Arial" font-size="11" text-anchor="end">moltenvk_geo-beacon-exact_rapid-teleport_l100_f16.67_m256_u25_r640x360_cold_n0</text>
<text x="651.6" y="118.7" fill="#e5e7eb" font-family="Arial" font-size="11">17.1</text>
<rect x="732.4" y="152.5" width="68.8" height="187.5" fill="#4cc9f0"/>
<text transform="translate(766.8,366) rotate(-35)" fill="#d1d5db" font-family="Arial" font-size="11" text-anchor="end">moltenvk_semantic-lod_outer-orbit_l100_f16.67_m256_u25_r640x360_cold_n0</text>
<text x="732.4" y="146.5" fill="#e5e7eb" font-family="Arial" font-size="11">14.9</text>
<rect x="813.2" y="129.2" width="68.8" height="210.8" fill="#4cc9f0"/>
<text transform="translate(847.6,366) rotate(-35)" fill="#d1d5db" font-family="Arial" font-size="11" text-anchor="end">moltenvk_semantic-lod_rapid-teleport_l100_f16.67_m256_u25_r640x360_cold_n0</text>
<text x="813.2" y="123.2" fill="#e5e7eb" font-family="Arial" font-size="11">16.7</text>
</svg>
