<svg xmlns="http://www.w3.org/2000/svg" width="920" height="420" viewBox="0 0 920 420">
<rect width="100%" height="100%" fill="#101418"/>
<text x="80" y="30" fill="#f4f7fb" font-family="Arial" font-size="20">vulkan_gpu_measurements p50 Time or Modeled Cost (ms)</text>
<line x1="80" y1="340" x2="896" y2="340" stroke="#6b7280"/>
<line x1="80" y1="48" x2="80" y2="340" stroke="#6b7280"/>
<rect x="86.0" y="48.0" width="68.8" height="292.0" fill="#4cc9f0"/>
<text transform="translate(120.4,366) rotate(-35)" fill="#d1d5db" font-family="Arial" font-size="11" text-anchor="end">moltenvk_distance-lod_outer-orbit_l100_f16.67_m256_u25_r640x360_cold_n0</text>
<text x="86.0" y="44.0" fill="#e5e7eb" font-family="Arial" font-size="11">0.275</text>
<rect x="166.8" y="73.9" width="68.8" height="266.1" fill="#4cc9f0"/>
<text transform="translate(201.2,366) rotate(-35)" fill="#d1d5db" font-family="Arial" font-size="11" text-anchor="end">moltenvk_distance-lod_rapid-teleport_l100_f16.67_m256_u25_r640x360_cold_n0</text>
<text x="166.8" y="67.9" fill="#e5e7eb" font-family="Arial" font-size="11">0.251</text>
<rect x="247.6" y="53.2" width="68.8" height="286.8" fill="#4cc9f0"/>
<text transform="translate(282.0,366) rotate(-35)" fill="#d1d5db" font-family="Arial" font-size="11" text-anchor="end">moltenvk_fixed-lod1_outer-orbit_l100_f16.67_m256_u25_r640x360_cold_n0</text>
<text x="247.6" y="47.2" fill="#e5e7eb" font-family="Arial" font-size="11">0.27</text>
<rect x="328.4" y="73.9" width="68.8" height="266.1" fill="#4cc9f0"/>
<text transform="translate(362.8,366) rotate(-35)" fill="#d1d5db" font-family="Arial" font-size="11" text-anchor="end">moltenvk_fixed-lod1_rapid-teleport_l100_f16.67_m256_u25_r640x360_cold_n0</text>
<text x="328.4" y="67.9" fill="#e5e7eb" font-family="Arial" font-size="11">0.251</text>
<rect x="409.2" y="221.8" width="68.8" height="118.2" fill="#4cc9f0"/>
<text transform="translate(443.6,366) rotate(-35)" fill="#d1d5db" font-family="Arial" font-size="11" text-anchor="end">moltenvk_geo-beacon-bounded_outer-orbit_l100_f16.67_m256_u25_r640x360_cold_n0</text>
<text x="409.2" y="215.8" fill="#e5e7eb" font-family="Arial" font-size="11">0.111</text>
<rect x="490.0" y="177.8" width="68.8" height="162.2" fill="#4cc9f0"/>
<text transform="translate(524.4,366) rotate(-35)" fill="#d1d5db" font-family="Arial" font-size="11" text-anchor="end">moltenvk_geo-beacon-bounded_rapid-teleport_l100_f16.67_m256_u25_r640x360_cold_n0</text>
<text x="490.0" y="171.8" fill="#e5e7eb" font-family="Arial" font-size="11">0.153</text>
<rect x="570.8" y="203.1" width="68.8" height="136.9" fill="#4cc9f0"/>
<text transform="translate(605.2,366) rotate(-35)" fill="#d1d5db" font-family="Arial" font-size="11" text-anchor="end">moltenvk_geo-beacon-exact_outer-orbit_l100_f16.67_m256_u25_r640x360_cold_n0</text>
<text x="570.8" y="197.1" fill="#e5e7eb" font-family="Arial" font-size="11">0.129</text>
<rect x="651.6" y="93.9" width="68.8" height="246.1" fill="#4cc9f0"/>
<text transform="translate(686.0,366) rotate(-35)" fill="#d1d5db" font-family="Arial" font-size="11" text-anchor="end">moltenvk_geo-beacon-exact_rapid-teleport_l100_f16.67_m256_u25_r640x360_cold_n0</text>
<text x="651.6" y="87.9" fill="#e5e7eb" font-family="Arial" font-size="11">0.232</text>
<rect x="732.4" y="64.1" width="68.8" height="275.9" fill="#4cc9f0"/>
<text transform="translate(766.8,366) rotate(-35)" fill="#d1d5db" font-family="Arial" font-size="11" text-anchor="end">moltenvk_semantic-lod_outer-orbit_l100_f16.67_m256_u25_r640x360_cold_n0</text>
<text x="732.4" y="58.1" fill="#e5e7eb" font-family="Arial" font-size="11">0.26</text>
<rect x="813.2" y="66.1" width="68.8" height="273.9" fill="#4cc9f0"/>
<text transform="translate(847.6,366) rotate(-35)" fill="#d1d5db" font-family="Arial" font-size="11" text-anchor="end">moltenvk_semantic-lod_rapid-teleport_l100_f16.67_m256_u25_r640x360_cold_n0</text>
<text x="813.2" y="60.1" fill="#e5e7eb" font-family="Arial" font-size="11">0.258</text>
</svg>
