<svg xmlns="http://www.w3.org/2000/svg" width="920" height="420" viewBox="0 0 920 420">
<rect width="100%" height="100%" fill="#101418"/>
<text x="80" y="30" fill="#f4f7fb" font-family="Arial" font-size="20">vulkan_cpu_measurements Semantic Utility per CPU Millisecond</text>
<line x1="80" y1="340" x2="896" y2="340" stroke="#6b7280"/>
<line x1="80" y1="48" x2="80" y2="340" stroke="#6b7280"/>
<rect x="86.0" y="150.2" width="68.8" height="189.8" fill="#4cc9f0"/>
<text transform="translate(120.4,366) rotate(-35)" fill="#d1d5db" font-family="Arial" font-size="11" text-anchor="end">kosmickrisp_distance-lod_outer-orbit_l100_f16.67_m256_u25_r640x360_cold_n0</text>
<text x="86.0" y="144.2" fill="#e5e7eb" font-family="Arial" font-size="11">7.9</text>
<rect x="166.8" y="139.4" width="68.8" height="200.6" fill="#4cc9f0"/>
<text transform="translate(201.2,366) rotate(-35)" fill="#d1d5db" font-family="Arial" font-size="11" text-anchor="end">kosmickrisp_distance-lod_rapid-teleport_l100_f16.67_m256_u25_r640x360_cold_n0</text>
<text x="166.8" y="133.4" fill="#e5e7eb" font-family="Arial" font-size="11">8.35</text>
<rect x="247.6" y="122.2" width="68.8" height="217.8" fill="#4cc9f0"/>
<text transform="translate(282.0,366) rotate(-35)" fill="#d1d5db" font-family="Arial" font-size="11" text-anchor="end">kosmickrisp_fixed-lod1_outer-orbit_l100_f16.67_m256_u25_r640x360_cold_n0</text>
<text x="247.6" y="116.2" fill="#e5e7eb" font-family="Arial" font-size="11">9.07</text>
<rect x="328.4" y="48.0" width="68.8" height="292.0" fill="#4cc9f0"/>
<text transform="translate(362.8,366) rotate(-35)" fill="#d1d5db" font-family="Arial" font-size="11" text-anchor="end">kosmickrisp_fixed-lod1_rapid-teleport_l100_f16.67_m256_u25_r640x360_cold_n0</text>
<text x="328.4" y="44.0" fill="#e5e7eb" font-family="Arial" font-size="11">12.2</text>
<rect x="409.2" y="166.9" width="68.8" height="173.1" fill="#4cc9f0"/>
<text transform="translate(443.6,366) rotate(-35)" fill="#d1d5db" font-family="Arial" font-size="11" text-anchor="end">kosmickrisp_geo-beacon-bounded_outer-orbit_l100_f16.67_m256_u25_r640x360_cold_n0</text>
<text x="409.2" y="160.9" fill="#e5e7eb" font-family="Arial" font-size="11">7.21</text>
<rect x="490.0" y="152.7" width="68.8" height="187.3" fill="#4cc9f0"/>
<text transform="translate(524.4,366) rotate(-35)" fill="#d1d5db" font-family="Arial" font-size="11" text-anchor="end">kosmickrisp_geo-beacon-bounded_rapid-teleport_l100_f16.67_m256_u25_r640x360_cold_n0</text>
<text x="490.0" y="146.7" fill="#e5e7eb" font-family="Arial" font-size="11">7.8</text>
<rect x="570.8" y="169.5" width="68.8" height="170.5" fill="#4cc9f0"/>
<text transform="translate(605.2,366) rotate(-35)" fill="#d1d5db" font-family="Arial" font-size="11" text-anchor="end">kosmickrisp_geo-beacon-exact_outer-orbit_l100_f16.67_m256_u25_r640x360_cold_n0</text>
<text x="570.8" y="163.5" fill="#e5e7eb" font-family="Arial" font-size="11">7.1</text>
<rect x="651.6" y="150.5" width="68.8" height="189.5" fill="#4cc9f0"/>
<text transform="translate(686.0,366) rotate(-35)" fill="#d1d5db" font-family="Arial" font-size="11" text-anchor="end">kosmickrisp_geo-beacon-exact_rapid-teleport_l100_f16.67_m256_u25_r640x360_cold_n0</text>
<text x="651.6" y="144.5" fill="#e5e7eb" font-family="Arial" font-size="11">7.89</text>
<rect x="732.4" y="139.5" width="68.8" height="200.5" fill="#4cc9f0"/>
<text transform="translate(766.8,366) rotate(-35)" fill="#d1d5db" font-family="Arial" font-size="11" text-anchor="end">kosmickrisp_semantic-lod_outer-orbit_l100_f16.67_m256_u25_r640x360_cold_n0</text>
<text x="732.4" y="133.5" fill="#e5e7eb" font-family="Arial" font-size="11">8.35</text>
<rect x="813.2" y="122.0" width="68.8" height="218.0" fill="#4cc9f0"/>
<text transform="translate(847.6,366) rotate(-35)" fill="#d1d5db" font-family="Arial" font-size="11" text-anchor="end">kosmickrisp_semantic-lod_rapid-teleport_l100_f16.67_m256_u25_r640x360_cold_n0</text>
<text x="813.2" y="116.0" fill="#e5e7eb" font-family="Arial" font-size="11">9.08</text>
</svg>
