<svg xmlns="http://www.w3.org/2000/svg" width="920" height="420" viewBox="0 0 920 420">
<rect width="100%" height="100%" fill="#101418"/>
<text x="80" y="30" fill="#f4f7fb" font-family="Arial" font-size="20">vulkan_cpu_measurements Semantic Utility per CPU Millisecond</text>
<line x1="80" y1="340" x2="896" y2="340" stroke="#6b7280"/>
<line x1="80" y1="48" x2="80" y2="340" stroke="#6b7280"/>
<rect x="86.0" y="162.4" width="68.8" height="177.6" fill="#4cc9f0"/>
<text transform="translate(120.4,366) rotate(-35)" fill="#d1d5db" font-family="Arial" font-size="11" text-anchor="end">kosmickrisp_distance-lod_outer-orbit_l100_f16.67_m256_u25_r640x360_cold_n0</text>
<text x="86.0" y="156.4" fill="#e5e7eb" font-family="Arial" font-size="11">13.9</text>
<rect x="166.8" y="145.4" width="68.8" height="194.6" fill="#4cc9f0"/>
<text transform="translate(201.2,366) rotate(-35)" fill="#d1d5db" font-family="Arial" font-size="11" text-anchor="end">kosmickrisp_distance-lod_rapid-teleport_l100_f16.67_m256_u25_r640x360_cold_n0</text>
<text x="166.8" y="139.4" fill="#e5e7eb" font-family="Arial" font-size="11">15.2</text>
<rect x="247.6" y="59.6" width="68.8" height="280.4" fill="#4cc9f0"/>
<text transform="translate(282.0,366) rotate(-35)" fill="#d1d5db" font-family="Arial" font-size="11" text-anchor="end">kosmickrisp_fixed-lod1_outer-orbit_l100_f16.67_m256_u25_r640x360_cold_n0</text>
<text x="247.6" y="53.6" fill="#e5e7eb" font-family="Arial" font-size="11">22</text>
<rect x="328.4" y="48.0" width="68.8" height="292.0" fill="#4cc9f0"/>
<text transform="translate(362.8,366) rotate(-35)" fill="#d1d5db" font-family="Arial" font-size="11" text-anchor="end">kosmickrisp_fixed-lod1_rapid-teleport_l100_f16.67_m256_u25_r640x360_cold_n0</text>
<text x="328.4" y="44.0" fill="#e5e7eb" font-family="Arial" font-size="11">22.9</text>
<rect x="409.2" y="213.5" width="68.8" height="126.5" fill="#4cc9f0"/>
<text transform="translate(443.6,366) rotate(-35)" fill="#d1d5db" font-family="Arial" font-size="11" text-anchor="end">kosmickrisp_geo-beacon-bounded_outer-orbit_l100_f16.67_m256_u25_r640x360_cold_n0</text>
<text x="409.2" y="207.5" fill="#e5e7eb" font-family="Arial" font-size="11">9.91</text>
<rect x="490.0" y="205.4" width="68.8" height="134.6" fill="#4cc9f0"/>
<text transform="translate(524.4,366) rotate(-35)" fill="#d1d5db" font-family="Arial" font-size="11" text-anchor="end">kosmickrisp_geo-beacon-bounded_rapid-teleport_l100_f16.67_m256_u25_r640x360_cold_n0</text>
<text x="490.0" y="199.4" fill="#e5e7eb" font-family="Arial" font-size="11">10.5</text>
<rect x="570.8" y="208.9" width="68.8" height="131.1" fill="#4cc9f0"/>
<text transform="translate(605.2,366) rotate(-35)" fill="#d1d5db" font-family="Arial" font-size="11" text-anchor="end">kosmickrisp_geo-beacon-exact_outer-orbit_l100_f16.67_m256_u25_r640x360_cold_n0</text>
<text x="570.8" y="202.9" fill="#e5e7eb" font-family="Arial" font-size="11">10.3</text>
<rect x="651.6" y="210.1" width="68.8" height="129.9" fill="#4cc9f0"/>
<text transform="translate(686.0,366) rotate(-35)" fill="#d1d5db" font-family="Arial" font-size="11" text-anchor="end">kosmickrisp_geo-beacon-exact_rapid-teleport_l100_f16.67_m256_u25_r640x360_cold_n0</text>
<text x="651.6" y="204.1" fill="#e5e7eb" font-family="Arial" font-size="11">10.2</text>
<rect x="732.4" y="155.1" width="68.8" height="184.9" fill="#4cc9f0"/>
<text transform="translate(766.8,366) rotate(-35)" fill="#d1d5db" font-family="Arial" font-size="11" text-anchor="end">kosmickrisp_semantic-lod_outer-orbit_l100_f16.67_m256_u25_r640x360_cold_n0</text>
<text x="732.4" y="149.1" fill="#e5e7eb" font-family="Arial" font-size="11">14.5</text>
<rect x="813.2" y="126.5" width="68.8" height="213.5" fill="#4cc9f0"/>
<text transform="translate(847.6,366) rotate(-35)" fill="#d1d5db" font-family="Arial" font-size="11" text-anchor="end">kosmickrisp_semantic-lod_rapid-teleport_l100_f16.67_m256_u25_r640x360_cold_n0</text>
<text x="813.2" y="120.5" fill="#e5e7eb" font-family="Arial" font-size="11">16.7</text>
</svg>
